<?xml version="1.0" encoding="UTF-8" standalone="no"?>
<!-- Created with Inkscape (http://www.inkscape.org/) -->

<svg
   width="100%"
   viewBox="0 0 100.0 100.0"
   version="1.1"
   id="svg1162"
   sodipodi:docname="person_005.svg"
   inkscape:version="1.2 (dc2aedaf03, 2022-05-15)"
   xmlns:inkscape="http://www.inkscape.org/namespaces/inkscape"
   xmlns:sodipodi="http://sodipodi.sourceforge.net/DTD/sodipodi-0.dtd"
   xmlns="http://www.w3.org/2000/svg"
   xmlns:svg="http://www.w3.org/2000/svg">
  <defs
     id="defs170">
    <inkscape:path-effect
       effect="bspline"
       id="path-effect1147"
       is_visible="true"
       lpeversion="1"
       weight="33.333333"
       steps="2"
       helper_size="0"
       apply_no_weight="true"
       apply_with_weight="true"
       only_selected="false" />
    <inkscape:path-effect
       effect="bspline"
       id="path-effect1422"
       is_visible="true"
       lpeversion="1"
       weight="33.333333"
       steps="2"
       helper_size="0"
       apply_no_weight="true"
       apply_with_weight="true"
       only_selected="false" />
    <inkscape:path-effect
       effect="bspline"
       id="path-effect1306"
       is_visible="true"
       lpeversion="1"
       weight="33.333333"
       steps="2"
       helper_size="0"
       apply_no_weight="true"
       apply_with_weight="true"
       only_selected="false" />
    <inkscape:path-effect
       effect="bspline"
       id="path-effect386"
       is_visible="true"
       lpeversion="1"
       weight="33.333333"
       steps="2"
       helper_size="0"
       apply_no_weight="true"
       apply_with_weight="true"
       only_selected="false" />
    <inkscape:path-effect
       effect="bspline"
       id="path-effect386-3"
       is_visible="true"
       lpeversion="1"
       weight="33.333333"
       steps="2"
       helper_size="0"
       apply_no_weight="true"
       apply_with_weight="true"
       only_selected="false" />
    <inkscape:path-effect
       effect="bspline"
       id="path-effect386-2"
       is_visible="true"
       lpeversion="1"
       weight="33.333333"
       steps="2"
       helper_size="0"
       apply_no_weight="true"
       apply_with_weight="true"
       only_selected="false" />
    <inkscape:path-effect
       effect="bspline"
       id="path-effect386-0"
       is_visible="true"
       lpeversion="1"
       weight="33.333333"
       steps="2"
       helper_size="0"
       apply_no_weight="true"
       apply_with_weight="true"
       only_selected="false" />
    <inkscape:path-effect
       effect="bspline"
       id="path-effect1422-0"
       is_visible="true"
       lpeversion="1"
       weight="33.333333"
       steps="2"
       helper_size="0"
       apply_no_weight="true"
       apply_with_weight="true"
       only_selected="false" />
    <inkscape:path-effect
       effect="bspline"
       id="path-effect1422-0-4"
       is_visible="true"
       lpeversion="1"
       weight="33.333333"
       steps="2"
       helper_size="0"
       apply_no_weight="true"
       apply_with_weight="true"
       only_selected="false" />
  </defs>
  <sodipodi:namedview
     id="namedview168"
     pagecolor="#505050"
     bordercolor="#ffffff"
     borderopacity="1"
     inkscape:showpageshadow="0"
     inkscape:pageopacity="0"
     inkscape:pagecheckerboard="1"
     inkscape:deskcolor="#505050"
     showgrid="false"
     inkscape:zoom="5.6568543"
     inkscape:cx="64.258329"
     inkscape:cy="68.324193"
     inkscape:window-width="1350"
     inkscape:window-height="1032"
     inkscape:window-x="130"
     inkscape:window-y="0"
     inkscape:window-maximized="0"
     inkscape:current-layer="svg1162" />
  <path
     id="body-big"
     d="m 51.371875,29.92517 c -2.9,0 -3.9,0 -7,1.454359 -2.4,1.057715 -4.1,4.230862 -6.6,14.01473 -2.4,9.651653 -5.6,24.45967 -6.9,35.301253 -1.2,10.709369 -0.2,15.072445 6.4,17.187876 6.6,2.115431 19.1,2.247642 26.5,0.396644 7.4,-1.718788 9.7,-5.553007 9.2,-16.791233 -0.5,-11.238227 -4.2,-28.690532 -6.7,-38.738829 -2.4,-10.048297 -3.8,-11.502655 -5.8,-12.163728 -1.9,-0.661072 -4.3,-0.661072 -7.3,-0.661072 z"
     style="stroke-width:1.14985" />
  <path
     id="body-little"
     style="fill:#8f39a6"
     d="m 47.235389,31.437072 c -2.9,0 -3.546447,-0.176777 -7,5.342641 -1.7,1.8 -1.892893,6.49099 -2.992893,10.49099 -1,3.7 -6.958758,31.83833 -8.778758,39.93833 -1.8,8 3.810408,10.825126 10.610408,11.525126 7.5,0.7 13.853553,1.407111 21.053553,0.407107 7.4,-1 14.826525,-5.614214 13.526525,-14.114214 -1.2,-8.3 -5.044544,-29.586679 -6.460661,-38.640232 -2,-7.8 -1.341242,-11.060661 -3.241242,-11.460661 l -7.653554,-4.949747 z"
     sodipodi:nodetypes="ccccccccccc" />
  <path
     id="body-fat"
     style="fill:#1992a6;fill-opacity:1"
     d="m 49.481655,31.153584 c -4.844544,1.237436 -4.783877,0.707107 -8.414214,3.044544 -4.351651,3.567766 -6.312309,3.485786 -9.356851,10.137436 -2.944544,9.180077 -3.776777,21.408505 -5.066448,39.231223 -0.73934,8.883884 -1.316116,15.598097 8.312311,15.944544 7.5,0.699999 19.156852,1.230339 26.356852,0.23033 7.4,-1 11.64455,-2.785787 11.75876,-7.92703 -0.49289,-8.83033 -2.74645,-35.773863 -5.57677,-45.004193 -2,-7.8 -3.60529,-11.597306 -7.13033,-13.758757 -2.78689,-1.708842 -6.23935,-3.005205 -6.23935,-3.005205 z"
     sodipodi:nodetypes="ccccccccscc" />
  <path
     id="body-fat-7"
     style="fill:#19391b;fill-opacity:1"
     d="m 47.290512,29.620791 c -0.4625,0 -1.968013,0.901966 -3.984073,3.358884 -1.825,1.7375 -2.589274,3.098222 -3.512496,8.86599 -1.665763,12.846409 -4.808948,32.672276 -6.098618,50.671771 0.68842,4.581264 2.953491,5.761104 7.190991,6.398604 3.9375,0.325 15.303613,0.10532 19.503614,-0.20717 6.525,-0.6875 9.92856,2.86066 8.75356,-11.639342 -0.94333,-10.041474 -2.53707,-25.436756 -4.3948,-45.998989 -1.25,-5.9875 -2.82868,-9.010724 -4.6769,-11.081981 l -3.562567,-0.444544 z"
     sodipodi:nodetypes="ccccccccccc" />
  <circle
     id="head"
     style="fill:#f5deb3"
     cx="51.020954"
     cy="21.2257"
     r="13" />
  <path
     id="nose-triangle"
     style="fill:#f5deb3"
     d="m 38.223611,19.554563 -3,6 h 6 z" />
  <circle
     id="eye"
     style="fill:#1e90ff"
     cx="43.157745"
     cy="20.438446"
     r="1.5" />
  <path
     id="eyebrow"
     style="stroke:#000000;stroke-linecap:round"
     d="m 23.095055,18.11873 5,1" />
  <path
     id="hair-bob"
     style="fill:#000000;stroke:#000000"
     d="m -30.382801,24.884494 c 3.980887,-0.01993 8.24305,0.703834 11.318857,2.594181 3.075808,1.890346 4.965598,4.946176 6.010696,8.826335 1.045099,3.880159 1.24614,8.584528 0.945086,10.896084 -0.301054,2.311555 -1.105219,2.231139 -4.885027,2.452204 -3.779808,0.221066 -10.534799,0.743773 -13.53093,0.06049 -2.996132,-0.683282 -2.232175,-2.573071 -0.904711,-3.618812 1.327465,-1.045741 3.217254,-1.246783 4.161725,-3.598512 0.944472,-2.35173 0.944472,-6.855058 0.140839,-9.689901 -0.803632,-2.834842 -2.411963,-4.000882 -4.623579,-4.524029 -2.211616,-0.523148 -5.026196,-0.402523 -6.795314,-0.603144 -1.769119,-0.200622 -2.492868,-0.72333 -1.00528,-1.36717 1.487588,-0.64384 5.18675,-1.407797 9.167638,-1.427726 z" />
  <path
     style="fill:#8f3905;fill-opacity:1;stroke-width:1.39843;stroke-linecap:round;stroke-linejoin:round;stroke-miterlimit:0"
     d="m -21.416577,61.178825 c -0.08045,2.413511 -0.160869,4.826057 0.321567,4.986589 0.482435,0.160533 1.527851,-1.930298 2.634271,-2.895438 1.10642,-0.965139 2.27246,-0.804306 3.035988,0.221542 0.763528,1.025848 1.125402,2.915638 1.3868,4.182244 0.261398,1.266607 0.422231,1.909939 1.005719,2.371924 0.583489,0.461986 1.588696,0.743444 2.472623,-0.68382 0.8839267,-1.427263 1.6478837,-4.563509 1.2463327,-7.01611 -0.401551,-2.452601 -1.9696737,-4.221765 -2.8541677,-5.126883 -0.884493,-0.905117 -1.085534,-0.945326 -1.287734,-0.985766"
     id="hair-base" />
  <path
     style="fill:#8f3905;fill-opacity:1;stroke-width:1.39843;stroke-linecap:round;stroke-linejoin:round;stroke-miterlimit:0"
     d="m -24.078973,18.402894 c 4.504623,1.649014 9.00804,3.297586 11.702027,4.202176 2.6939877,0.90459 3.5785697,1.065423 5.0859697,0.421884 1.5074,-0.643538 3.638439,-2.091036 4.040876,-3.558081 0.402438,-1.467046 -0.924435,-2.954752 -3.035318,-4.101081 -2.110883,-1.146329 -5.0058787,-1.950495 -7.8610507,-1.870333 -2.855173,0.08016 -5.669753,1.045161 -7.19809,1.749101 -1.528338,0.703939 -1.769587,1.14623 -2.010651,1.58818"
     id="hair-top" />
  <path
     style="fill:#8f3905;fill-opacity:1;stroke-width:1.39843;stroke-linecap:round;stroke-linejoin:round;stroke-miterlimit:0"
     d="m 39.365691,25.580283 c 1.133512,0.485778 0.472139,-0.917576 2.249454,-0.856917 1.468355,0.05011 4.056531,0.221841 4.096475,0.704027 0.03995,0.482187 -1.407554,0.844062 -2.915463,1.286355 -1.507909,0.442293 -3.888319,1.673473 -4.17379,0.945265 -0.302261,-0.771038 -0.401733,-2.569456 0.433957,-2.211312 z"
     id="facial-top"
     sodipodi:nodetypes="sssssss" />
  <path
     style="fill:#8f3905;fill-opacity:1;stroke-width:1.39843;stroke-linecap:round;stroke-linejoin:round;stroke-miterlimit:0"
     d="m 43.618099,26.704341 c -0.808013,0.772376 -1.763586,2.604062 -2.467501,2.255527 -1.242804,-0.615359 -0.732105,-0.626923 -1.942012,-1.272717 -0.685581,-0.365932 1.024418,3.023721 1.620141,4.402148 0.542431,1.255114 1.319823,3.560234 2.123332,2.856763 0.803509,-0.703472 2.394849,-3.939016 2.395249,-5.205359 3.99e-4,-1.266342 0.309409,-3.127182 -0.133517,-3.972768"
     id="facial-bottom"
     sodipodi:nodetypes="csssssc" />
  <path
     style="fill:#e9e805;fill-opacity:1;stroke-width:1.39843;stroke-linecap:round;stroke-linejoin:round;stroke-miterlimit:0"
     d="m 112.35907,25.53442 c 3.01674,2.654732 6.03243,5.308531 9.26934,6.956751 3.23691,1.64822 6.69482,2.291552 8.58428,3.096236 1.88945,0.804685 2.21112,1.769684 2.15056,4.433424 -0.0606,2.66374 -0.50285,7.026252 0.88468,13.138315 1.38754,6.112062 4.60413,13.972624 6.40326,12.756152 1.79913,-1.216471 2.1811,-11.509585 1.21652,-18.083837 -0.96457,-6.574252 -3.27655,-9.429041 -4.2923,-12.686101 -1.01576,-3.257059 -0.73431,-6.91594 -3.00553,-9.670546 -2.27122,-2.754605 -7.09611,-4.604149 -11.05729,-4.433557 -3.96118,0.170592 -7.05722,2.361943 -10.15352,4.553476"
     id="hair-pony" />
  <path
     style="fill:#e9ba47;fill-opacity:1;stroke-width:1.39843;stroke-linecap:round;stroke-linejoin:round;stroke-miterlimit:0"
     d="m 41.047642,12.097302 c 3.016738,2.654732 13.352518,2.579002 16.589428,4.227222 3.23691,1.64822 1.95989,4.980844 2.87709,6.818321 1.02097,2.04538 1.44055,4.594791 3.26718,2.94459 3.93391,-3.553945 0.91924,-10.162714 3.98643,-7.08501 5.25255,5.270562 0.0136,5.908107 4.66628,5.560122 2.16574,-0.161979 4.90136,-1.281643 1.58873,-7.041653 -4.06631,-7.07053 -8.11526,1.116865 -9.13101,-2.140195 -1.01576,-3.257059 -1.10651,-3.193856 -3.37774,-5.9484622 -2.27122,-2.754605 -7.09611,-2.867176 -11.05729,-2.696584 -3.96118,0.170592 -6.68501,1.989734 -9.409098,5.4219622"
     id="hair-pony-2"
     sodipodi:nodetypes="csssssssssc" />
  <path
     style="fill:#e4711b;fill-opacity:1;stroke-width:1.39843;stroke-linecap:round;stroke-linejoin:round;stroke-miterlimit:0"
     d="m 41.08971,12.286094 c 3.016741,2.654732 13.352521,2.579002 16.589431,4.227222 3.23691,1.64822 1.95989,4.980844 2.877084,6.818321 1.020971,2.04538 1.140375,4.184109 3.267186,2.94459 4.182042,-2.43732 2.869799,-7.581288 2.869799,-7.581288 0,0 5.876363,5.150965 5.410704,-2.628464 -0.203558,-3.400682 -0.354446,-2.545084 -1.513007,-5.18061 -3.388029,-7.7071805 -9.036198,-1.1004885 -6.525558,1.209681 0.100871,0.09282 -0.238025,0.280089 -2.509246,-2.4745165 -2.271221,-2.754605 -7.096118,-2.867176 -11.057298,-2.696584 -3.961179,0.170592 -6.685008,1.989734 -9.409095,5.4219615"
     id="hair-bun"
     sodipodi:nodetypes="cssscsssssc" />
  <path
     style="fill:#e99205;fill-opacity:1;stroke-width:1.39843;stroke-linecap:round;stroke-linejoin:round;stroke-miterlimit:0"
     d="m -28.413063,65.577329 c -1.563682,1.336238 -3.127448,2.672547 -4.392244,2.829464 -1.264796,0.156916 -2.231468,-0.86662 -2.7153,-2.075012 -0.483831,-1.208393 -0.483831,-2.601539 0.270062,-3.398197 0.753893,-0.796659 2.260764,-0.99568 3.284335,-0.753393 1.023572,0.242287 1.563771,0.924645 1.364793,0.782432 -0.198978,-0.142214 -1.137218,-1.108887 -1.308401,-2.317522 -0.171183,-1.208636 0.42588,-2.658645 1.393166,-3.412369 0.967287,-0.753723 2.30357,-0.810586 2.971247,-0.838998 0.667677,-0.02841 2.4589,1.762811 2.544106,1.45039 0.08521,-0.312421 0.255795,-0.937915 0.924395,-1.407478 0.668601,-0.469563 1.834294,-0.78231 2.744366,-0.724972 0.910073,0.05734 1.563998,0.483811 1.663236,0.256566 0.09924,-0.227245 -0.355668,-1.108623 0.298378,-1.70637 0.654046,-0.597747 2.416803,-0.910494 4.009183,-0.554604 1.592381,0.355891 3.013958,1.379426 3.539349,2.10408 0.525391,0.724653 0.155781,1.151127 0.212593,0.95221 0.05681,-0.198918 0.540149,-1.023433 1.6923607,-1.037531 1.152212,-0.0141 2.971832,0.781986 3.994857,2.075955 1.023025,1.29397 1.250478,3.085158 0.881124,4.108071 -0.369354,1.022914 -1.336027,1.278798 -1.03741,1.27882 0.298616,2.1e-5 1.862351,-0.255863 2.985254,0.498276 1.122902,0.754139 1.805258,2.516895 1.861806,3.824293 0.05655,1.307399 -0.512082,2.160345 -1.250819,2.643523 -0.738737,0.483178 -1.648529,0.596902 -1.378249,0.895699 0.27028,0.298797 1.72029,0.782133 2.330917,1.805924 0.61062796,1.02379 0.383175,2.587525 -0.184862,3.312194 -0.568036,0.724669 -1.477828,0.610945 -1.719778,1.009535 -0.241949,0.39859 0.184524,1.3084 0.312112,2.218028 0.127587,0.909627 -0.043,1.819436 -0.938125,2.373419 -0.895122,0.553983 -2.515721,0.753004 -4.150416,0.440595 -1.634695,-0.312408 -3.2837247,-1.136923 -4.1798797,-2.21711 -0.896155,-1.080187 -1.038313,-2.41647 -0.682661,-3.227435 0.355652,-0.810965 1.208598,-1.095281 1.080643,-1.052629 -0.127956,0.04265 -1.236786,0.412262 -1.976025,0.228146 -0.739239,-0.184116 -1.108849,-0.923336 -1.464425,-2.060654 -0.355575,-1.137318 -0.696754,-2.672621 -0.298501,-3.611564 0.398253,-0.938942 1.535515,-1.28012 1.435807,-1.038428 -0.09971,0.241692 -1.435992,1.066207 -2.615694,0.697238 -1.179702,-0.368968 -2.203239,-1.932704 -2.8147,-2.998892 -0.611461,-1.066187 -0.810482,-1.634818 -0.881737,-1.49272 -0.07126,0.142099 -0.01439,0.995046 -1.009108,1.492046 -0.994717,0.497 -3.041789,0.639158 -4.207641,0.454971 -1.165853,-0.184187 -1.450168,-0.695955 -1.507149,-0.710159 -0.05698,-0.0142 0.113609,0.469132 -0.341313,0.965996 -0.454922,0.496864 -1.535321,1.008632 -1.777301,0.326653 -0.241981,-0.681978 0.355082,-2.55846 0.952353,-4.435599"
     id="hair-curly" />
  <path
     style="fill:#f7eff7;fill-opacity:1;stroke-width:1.39843;stroke-linecap:round;stroke-linejoin:round;stroke-miterlimit:0"
     d="M 37.068148,14.345438 C 38.83835,12.416402 43.28045,8.0125073 43.28045,8.0125073 l 7.59952,-2.291918 c 0,0 6.67471,0.743868 8.98673,1.779252 2.31202,1.035384 5.54885,5.7599517 5.54885,5.7599517 l 2.47286,16.465621 -10.73582,-2.050663 0.18094,-6.574186 -2.05067,6.031363 -5.36791,0.06031 5.06635,-14.173704 -3.01569,4.161641 c 0,0 -4.06111,-1.527945 -6.09167,-2.291918 l 1.99035,-3.377564 -4.76478,4.704464 -4.10133,-0.120627"
     id="hair-straight" />
  <path
     style="fill:#f7eff7;fill-opacity:1;stroke-width:1.39843;stroke-linecap:round;stroke-linejoin:round;stroke-miterlimit:0"
     d="m 39.132418,24.60338 c 0.495881,-1.246151 2.803201,-0.547551 5.448309,-0.76204 1.403975,-0.113847 2.091736,0.336469 3.04631,1.512898 0.954575,1.176429 1.605879,2.624102 1.655852,4.53383 0.04997,1.909727 -0.412421,4.06087 -1.518144,6.161483 -1.105723,2.100613 -2.854783,4.151235 -4.532953,5.106205 -1.67817,0.954969 -3.286501,0.814239 -4.292203,-0.864015 -1.005702,-1.678255 -1.407785,-4.894918 -1.237053,-7.770122 0.170731,-2.875204 0.605226,-5.408326 1.349285,-7.942148"
     id="facial-big"
     sodipodi:nodetypes="csssssssc" />
  <path
     style="fill:#391d25;fill-opacity:1;stroke-width:1.39843;stroke-linecap:round;stroke-linejoin:round;stroke-miterlimit:0"
     d="m 40.457049,11.378867 c 1.943825,-1.6956784 3.887583,-3.3912979 6.596894,-4.3631784 2.709312,-0.9718804 6.183122,-1.2200093 9.202302,-0.3924141 3.019181,0.8275952 5.583181,2.7299169 7.340535,4.9427205 1.757354,2.212804 2.708517,4.735451 3.266652,7.113428 0.558135,2.377978 0.723551,4.611139 0.640722,6.596147 -0.08283,1.985009 -0.413665,3.721911 -1.674562,4.734718 -1.260898,1.012808 -3.452708,1.302292 -5.58249,1.34376 -2.129782,0.04147 -5.624502,-0.308003 -5.91347,-0.980522 -0.288969,-0.672518 0.06051,-7.662031 -0.249245,-10.308765 -0.309753,-2.646734 -1.136865,-3.804691 -1.964806,-4.963809"
     id="hair-short"
     inkscape:path-effect="#path-effect386"
     inkscape:original-d="m 40.457049,11.378867 c 1.944752,-1.6946159 3.888512,-3.3902329 5.831262,-5.0868489 3.47502,-0.247144 6.94883,-0.495273 10.42184,-0.744416 2.56515,1.903436 5.12915,3.805758 7.69231,5.7071949 0.95222,2.523796 1.90338,5.046444 2.8536,7.56824 0.16642,2.234296 0.33184,4.467457 0.49627,6.699753 -0.32986,1.738007 -0.66069,3.47491 -0.99255,5.210917 -2.19094,0.290501 -4.38275,0.579985 -6.57568,0.868486 -2.06687,-0.205786 -5.56159,-0.555257 -6.20348,-0.620346 0.0651,-1.280786 0.41457,-8.270299 0.62035,-12.406948 -0.82615,-1.157005 -1.65326,-2.314964 -2.48139,-3.473947"
     sodipodi:nodetypes="ccccccccccc" />
  <path
     style="fill:#171d25;fill-opacity:1;stroke-width:1.39843;stroke-linecap:round;stroke-linejoin:round;stroke-miterlimit:0"
     d="m -41.230417,89.559172 c 1.943827,-1.695679 3.887582,-3.391296 6.596892,-4.363177 2.709311,-0.971882 6.183118,-1.22001 9.202302,-0.392414 3.019183,0.827596 5.583184,2.729918 7.444012,4.797965 1.860828,2.068048 3.018763,4.30121 3.80434,6.617191 0.785576,2.315982 1.199124,4.714563 1.488569,6.989183 0.289445,2.27462 0.454865,4.42507 -2.460526,6.3062 -2.91539,1.88113 -8.911843,3.49397 -12.944083,3.019 -4.03224,-0.47497 -7.526951,-4.80842 -7.270708,-5.37305 0.256242,-0.56462 6.546732,-2.38188 7.66331,-4.65583 1.116578,-2.27395 -0.372226,-5.74783 -1.861578,-9.222983"
     id="hair-sbob2"
     inkscape:path-effect="#path-effect386-0"
     inkscape:original-d="m -41.230417,89.559172 c 1.944754,-1.694616 3.888509,-3.390233 5.831264,-5.086849 3.475015,-0.247144 6.948822,-0.495273 10.421836,-0.744416 2.565154,1.903436 5.129155,3.805758 7.692309,5.707195 1.159004,2.234295 2.31694,4.467457 3.473944,6.699753 0.414574,2.399725 0.828122,4.798305 1.240695,7.196035 0.16643,2.15158 0.331849,4.30203 0.496279,6.45161 -5.995811,1.61393 -11.992264,3.22677 -17.990075,4.83871 -2.066866,-2.56316 -5.561581,-6.8966 -6.203474,-7.69231 1.154607,-0.33226 7.445095,-2.14952 11.166253,-3.22581 -1.487863,-3.47301 -2.976667,-6.946887 -4.466501,-10.421833"
     sodipodi:nodetypes="ccccccccccc" />
  <path
     style="fill:#981d15;fill-opacity:1;stroke-width:1.39843;stroke-linecap:round;stroke-linejoin:round;stroke-miterlimit:0"
     d="m 40.412877,12.030298 c 1.943827,-1.695679 3.887583,-3.3912959 6.596893,-4.3631772 2.709311,-0.9718812 6.183118,-1.22001 9.202302,-0.392414 3.019183,0.827596 5.583184,2.7299182 7.175138,4.4050762 1.591953,1.675158 2.212276,3.122577 2.460122,4.569934 0.247846,1.447357 0.123782,2.894777 -0.165765,4.590336 -0.289547,1.695559 -0.74445,3.639236 -1.509546,5.37598 -0.765095,1.736743 -1.840321,3.266872 -2.770518,3.163982 -0.930198,-0.102889 -2.258189,-3.038449 -2.361026,-3.737148 -0.102837,-0.6987 0.106846,-5.381619 -1.029873,-7.056925 -1.136718,-1.675306 -3.535346,-2.254286 -5.935196,-2.83356"
     id="hair-crop"
     inkscape:path-effect="#path-effect386-2"
     inkscape:original-d="m 40.412877,12.030298 c 1.944755,-1.694616 3.88851,-3.3902328 5.831265,-5.0868488 3.475015,-0.247144 6.948822,-0.495273 10.421836,-0.744416 2.565154,1.903436 5.129155,3.8057578 7.692309,5.7071948 0.621359,1.448506 1.241682,2.895925 1.861041,4.342432 -0.123072,1.448506 -0.247136,2.895926 -0.372208,4.342432 -0.45393,1.944794 -0.908833,3.888471 -1.364764,5.831265 -1.07429,1.53122 -2.149516,3.061349 -3.225807,4.59057 -0.784789,-1.736007 -2.11278,-4.671567 -2.35732,-5.210917 0.03945,-0.857796 0.249136,-5.540715 0.372208,-8.312655 -2.397724,-0.578002 -4.796352,-1.156982 -7.196029,-1.736973"
     sodipodi:nodetypes="ccccccccccc" />
  <path
     style="fill:#8f3d4d;fill-opacity:1;stroke-width:1.39843;stroke-linecap:round;stroke-linejoin:round;stroke-miterlimit:0"
     d="m 41.253094,12.008633 c 1.943827,-1.695679 3.887583,-3.3912955 6.803712,-4.2597557 2.91613,-0.8684603 6.803563,-0.9098158 9.926003,0.2693774 3.12244,1.1791932 5.479713,3.5778213 6.968156,6.5762683 1.488443,2.998446 2.108778,6.596389 2.667038,11.683269 0.558259,5.08688 1.054517,11.6623 1.054373,15.549604 -1.44e-4,3.887304 -0.496411,5.086617 -1.963936,5.54135 -1.467525,0.454734 -3.907461,0.16525 -6.244201,0.02043 -2.336741,-0.144816 -6.111033,-0.144815 -6.367919,-1.592765 -0.256886,-1.447951 0.721645,-17.244251 0.598002,-22.496436 -0.123643,-5.252186 -0.950756,-6.410145 -1.778697,-7.569262"
     id="hair-long"
     inkscape:path-effect="#path-effect386-3"
     inkscape:original-d="m 41.253094,12.008633 c 1.944755,-1.694616 3.88851,-3.3902323 5.831265,-5.0868483 3.888588,-0.04036 7.776021,-0.08171 11.662531,-0.124069 2.358367,2.399724 4.71564,4.7983523 7.071962,7.1960283 0.621359,3.599087 1.241694,7.19703 1.861042,10.794045 0.497288,6.576814 0.993545,13.152234 1.488833,19.727048 -0.495288,1.200362 -0.991555,2.399675 -1.488833,3.598014 -2.439082,-0.288501 -4.879018,-0.577985 -7.3201,-0.868487 -2.232296,0.001 -6.006588,0.001 -6.699752,1e-6 0.18045,-2.895835 1.158981,-18.692135 1.736972,-28.039702 -0.826146,-1.157005 -1.653259,-2.314964 -2.481389,-3.473946"
     sodipodi:nodetypes="ccccccccccc" />
  <path
     style="fill:#226a71;fill-opacity:1;stroke-width:1.39843;stroke-linecap:round;stroke-linejoin:round;stroke-miterlimit:0"
     d="m -4.6093725,-3.3401993 c 2.3164314,-1.0341196 4.63239249,-2.0680293 7.0397594,-2.4645218 2.407367,-0.3964924 4.9053471,-0.1558902 7.011008,0.7324591 2.1056611,0.8883494 3.8187641,2.4234914 4.9060381,3.9576007 1.087274,1.53410924 1.549285,3.066777 1.759915,3.83253 0.21063,0.765753 0.16933,0.765753 1.480431,0.7693027 1.311102,0.00355 3.973556,0.010644 6.637069,0.01774 -0.235593,-1.798829 -0.471036,-3.59650985 -1.059278,-5.7664691 -0.588242,-2.1699593 -1.52937,-4.7109479 -3.586839,-6.9574241 -2.05747,-2.2464765 -5.231752,-4.1976765 -8.354522,-5.2064785 -3.1227703,-1.008802 -6.1934905,-1.074382 -8.9065363,-0.806698 -2.71304574,0.267683 -5.0677561,0.868797 -7.0102952,1.646025 -1.9425391,0.777229 -3.4722384,1.730468 -4.6083336,2.981913 -1.1360949,1.2514458 -1.8777859,2.7999575 -2.6196959,4.3489262 -0.003,0.0205 -0.0061,0.041836 -0.009,0.0615"
     id="hair-mohawk"
     inkscape:path-effect="#path-effect1306"
     inkscape:original-d="m -4.6093725,-3.3401993 c 2.3169701,-1.032913 4.63293012,-2.066825 6.9479001,-3.1017365 2.49914,0.241618 4.9971201,0.4822205 7.49426,0.7218375 1.7142204,1.536239 3.4273204,3.071385 5.1395304,4.605623 0.46303,1.53373003 0.92504,3.066398 1.38606,4.598097 -0.0404,10e-4 -0.0817,10e-4 -0.12407,0 2.66457,0.0081 7.99054,0.02129 7.99054,0.02129 0,0 -0.47018,-3.596622 -0.70678,-5.396487 -0.94019,-2.540145 -1.88131,-5.0811365 -2.8235,-7.6232815 -3.17348,-1.9503192 -6.34776,-3.9015232 -9.52324,-5.8538432 -3.0699103,-0.06458 -6.1406304,-0.130164 -9.2125404,-0.196748 -2.35385998,0.602151 -4.70857,1.203266 -7.0644301,1.803417 -1.52879,0.954297 -3.05849,1.907535 -4.58928,2.859831 -0.7409295,1.5500002 -2.2257295,4.6469062 -2.2257295,4.6469062 0,0 -0.005,0.042 -0.009,0.0615"
     sodipodi:nodetypes="ccccccccccccccc" />
  <path
     style="fill:none;fill-opacity:1;stroke:#000000;stroke-width:1.39843;stroke-linecap:round;stroke-linejoin:round;stroke-miterlimit:0;stroke-dasharray:none;stroke-opacity:1"
     d="m 21.822407,18.055807 c 1.668255,-0.468869 1.668239,-0.468865 2.591623,-0.435498 0.923384,0.03337 1.935773,0.333893 2.59038,0.814829 0.654608,0.480936 0.952055,1.141411 1.248968,1.800702"
     id="eyebrow-02"
     inkscape:path-effect="#path-effect1422"
     inkscape:original-d="m 21.822407,18.055807 c 1.668589,-0.467682 1.668573,-0.467678 2.501384,-0.703023 1.013431,0.301538 2.02582,0.602064 3.037232,0.901597 0.298452,0.661487 0.595899,1.321962 0.892355,1.981459"
     sodipodi:nodetypes="cccc" />
  <path
     style="fill:none;fill-opacity:1;stroke:#000000;stroke-width:1.39843;stroke-linecap:round;stroke-linejoin:round;stroke-miterlimit:0;stroke-dasharray:none;stroke-opacity:1"
     d="m 22.570706,19.81897 c 1.668255,-0.468869 1.668239,-0.468865 2.524264,-0.632169 0.856025,-0.163303 1.734008,-0.255656 2.435604,-0.245405 0.701596,0.01025 1.226499,0.12276 1.750259,0.235026"
     id="eyebrow-03"
     inkscape:path-effect="#path-effect1422-0"
     inkscape:original-d="m 22.570706,19.81897 c 1.668589,-0.467682 1.668573,-0.467677 2.501384,-0.703023 0.87902,-0.09136 1.757003,-0.183709 2.634006,-0.277063 0.525913,0.113513 1.050816,0.226023 1.574737,0.337538"
     sodipodi:nodetypes="cccc" />
  <path
     style="fill:none;fill-opacity:1;stroke:#730000;stroke-width:1.39843;stroke-linecap:round;stroke-linejoin:round;stroke-miterlimit:0;stroke-dasharray:none;stroke-opacity:1"
     d="m 40.798408,16.188914 c 0.820722,0.917814 0.820713,0.917804 1.583482,1.027839 0.762768,0.110035 1.878546,-0.127062 2.766277,0.02312 0.887731,0.150181 1.54704,0.686588 2.205281,1.222126"
     id="eyebrow-05"
     inkscape:path-effect="#path-effect1422-0-4"
     inkscape:original-d="m 40.798408,16.188914 c 0.820781,0.917761 0.820772,0.917751 1.229671,1.375141 1.116826,-0.236107 2.232603,-0.473204 3.347406,-0.711306 0.660322,0.537417 1.319631,1.073824 1.977963,1.60925"
     sodipodi:nodetypes="cccc" />
  <path
     style="fill:#f6341b;fill-opacity:1;stroke:none;stroke-width:1.39843;stroke-linecap:round;stroke-linejoin:round;stroke-miterlimit:0;stroke-dasharray:none;stroke-opacity:1"
     d="m 38.78732,25.522525 c 0.616637,-0.291935 1.023243,0.112874 1.237166,-0.370857 0.562739,-1.272489 2.173795,-1.136289 3.905252,-0.23806 1.512239,0.784505 2.62679,1.525247 3.838066,0.815313 0.633742,-0.371438 0.01511,-2.301922 0.01511,-2.301922 0,0 1.357569,1.490734 0.472328,3.190799 -0.947813,1.820234 -2.446785,1.425286 -3.958632,1.109578 -2.365585,-0.493987 -3.335661,0.220864 -4.584367,0.628133 -0.676767,0.22073 -1.056898,-0.369775 -1.249448,-2.355728"
     id="hndlebars"
     sodipodi:nodetypes="cssscsssc" />
  <path
     style="fill:#f6751b;fill-opacity:1;stroke:none;stroke-width:1.39843;stroke-linecap:round;stroke-linejoin:round;stroke-miterlimit:0;stroke-dasharray:none;stroke-opacity:1"
     d="m 38.75764,25.9748 c 0,0 0.743188,-0.797524 2.772859,-0.804647 1.157931,-0.0041 2.032707,1.194093 3.49161,1.106424 0.768583,-0.04619 0.184236,4.577029 -1.347923,5.976286 -0.951973,0.869397 -1.852364,2.55568 -1.852364,2.55568 0,0 -2.122476,-2.071392 -2.802808,-3.99042 -0.508733,-1.434995 0.09218,-3.80476 0.09218,-3.80476 l 0.624209,-0.402665 c 0,0 0.02196,1.676073 0.613228,1.573811 0.399252,-0.06905 0.110489,-0.90598 0.110489,-0.90598 l 0.795496,0.04419 c 0,0 -0.06995,1.045363 0.331457,1.193243 0.704033,0.259368 1.237437,-1.347922 1.237437,-1.347922 0,0 -1.072544,-0.410356 -1.568893,-0.552428 -0.876398,-0.250855 -2.187612,0.441942 -2.187612,0.441942"
     id="jazz"
     sodipodi:nodetypes="cssscsccsccscsc" />
</svg>
