<?xml version="1.0" encoding="UTF-8" standalone="no"?>
<!-- Created with Inkscape (http://www.inkscape.org/) -->

<svg
   width="100%"
   viewBox="0 0 100.0 100.0"
   version="1.1"
   id="svg1162"
   sodipodi:docname="person_005.svg"
   inkscape:version="1.2 (dc2aedaf03, 2022-05-15)"
   xmlns:inkscape="http://www.inkscape.org/namespaces/inkscape"
   xmlns:sodipodi="http://sodipodi.sourceforge.net/DTD/sodipodi-0.dtd"
   xmlns="http://www.w3.org/2000/svg"
   xmlns:svg="http://www.w3.org/2000/svg">
  <defs
     id="defs170">
    <inkscape:path-effect
       effect="bspline"
       id="path-effect1422"
       is_visible="true"
       lpeversion="1"
       weight="33.333333"
       steps="2"
       helper_size="0"
       apply_no_weight="true"
       apply_with_weight="true"
       only_selected="false" />
    <inkscape:path-effect
       effect="bspline"
       id="path-effect1306"
       is_visible="true"
       lpeversion="1"
       weight="33.333333"
       steps="2"
       helper_size="0"
       apply_no_weight="true"
       apply_with_weight="true"
       only_selected="false" />
    <inkscape:path-effect
       effect="bspline"
       id="path-effect386"
       is_visible="true"
       lpeversion="1"
       weight="33.333333"
       steps="2"
       helper_size="0"
       apply_no_weight="true"
       apply_with_weight="true"
       only_selected="false" />
    <inkscape:path-effect
       effect="bspline"
       id="path-effect386-3"
       is_visible="true"
       lpeversion="1"
       weight="33.333333"
       steps="2"
       helper_size="0"
       apply_no_weight="true"
       apply_with_weight="true"
       only_selected="false" />
    <inkscape:path-effect
       effect="bspline"
       id="path-effect386-2"
       is_visible="true"
       lpeversion="1"
       weight="33.333333"
       steps="2"
       helper_size="0"
       apply_no_weight="true"
       apply_with_weight="true"
       only_selected="false" />
    <inkscape:path-effect
       effect="bspline"
       id="path-effect386-0"
       is_visible="true"
       lpeversion="1"
       weight="33.333333"
       steps="2"
       helper_size="0"
       apply_no_weight="true"
       apply_with_weight="true"
       only_selected="false" />
    <inkscape:path-effect
       effect="bspline"
       id="path-effect1422-0"
       is_visible="true"
       lpeversion="1"
       weight="33.333333"
       steps="2"
       helper_size="0"
       apply_no_weight="true"
       apply_with_weight="true"
       only_selected="false" />
    <inkscape:path-effect
       effect="bspline"
       id="path-effect1422-0-4"
       is_visible="true"
       lpeversion="1"
       weight="33.333333"
       steps="2"
       helper_size="0"
       apply_no_weight="true"
       apply_with_weight="true"
       only_selected="false" />
  </defs>
  <sodipodi:namedview
     id="namedview168"
     pagecolor="#505050"
     bordercolor="#ffffff"
     borderopacity="1"
     inkscape:showpageshadow="0"
     inkscape:pageopacity="0"
     inkscape:pagecheckerboard="1"
     inkscape:deskcolor="#505050"
     showgrid="false"
     inkscape:zoom="8.06"
     inkscape:cx="43.238213"
     inkscape:cy="17.245658"
     inkscape:window-width="1920"
     inkscape:window-height="1009"
     inkscape:window-x="-8"
     inkscape:window-y="-8"
     inkscape:window-maximized="1"
     inkscape:current-layer="svg1162" />
  <path
     id="body-big"
     style="fill:transparent"
     d="m 24,39       c -2.9,0 -3.9,0.0 -7,1.1      -2.4,0.8 -4.1,3.2      -6.6,10.6 -2.4,7.3      -5.6,18.5 -6.9,26.7      -1.2,8.1 -0.2,11.4      6.4,13.0 6.6,1.6       19.1,1.7 26.5,0.3      7.4,-1.3 9.7,-4.2      9.2,-12.7 -0.5,-8.5      -4.2,-21.7 -6.7,-29.3      -2.4,-7.6 -3.8,-8.7      -5.8,-9.2 -1.9,-0.5      -4.3,-0.5 -7.3,-0.5 z" />
  <path
     id="body-little"
     style="fill:#8f39a6"
     d="m 24,47      c -2.9,0 -3.9,0.0 -7,1.1       -1.7,1.8 -2.6,4.9       -3.7,8.9 -1.0,3.7       -3.6,13.1 -5.42,21.2       -1.8,8.0 -2.2,13.3       4.6,14.0 7.5,0.7       13.5,0.7 20.7,-0.3       7.4,-1.0 9.7,-4.2       8.4,-12.7 -1.2,-8.3       -3.1,-13.5 -5.4,-22.2       -2.0,-7.8 -4.7,-10.0       -6.6,-10.4 -1.93,-0       -4.3,-0 -7.3,-0 z" />
  <circle
     id="head"
     style="fill:wheat;"
     cx="24"
     cy="40"
     r="13" />
  <path
     id="nose-triangle"
     style="fill:wheat;"
     d="m 11,39 -3,6 6,0 z" />
  <circle
     id="eye"
     style="fill:dodgerblue;"
     cx="20"
     cy="39"
     r="1.5" />
  <path
     id="eyebrow"
     style="stroke:#000000;stroke-linecap:round"
     d="m 35.019692,38.333754 5,1" />
  <path
     id="hair-bob"
     style="fill:#000000;stroke:#000000;"
     d="m 67.632087,28.482509 c 3.980887,-0.01993 8.24305,0.703834 11.318857,2.594181 3.075808,1.890346 4.965598,4.946176 6.010696,8.826335 1.045099,3.880159 1.24614,8.584528 0.945086,10.896084 -0.301054,2.311555 -1.105219,2.231139 -4.885027,2.452204 -3.779808,0.221066 -10.534799,0.743773 -13.53093,0.06049 -2.996132,-0.683282 -2.232175,-2.573071 -0.904711,-3.618812 1.327465,-1.045741 3.217254,-1.246783 4.161725,-3.598512 0.944472,-2.35173 0.944472,-6.855058 0.140839,-9.689901 -0.803632,-2.834842 -2.411963,-4.000882 -4.623579,-4.524029 -2.211616,-0.523148 -5.026196,-0.402523 -6.795314,-0.603144 -1.769119,-0.200622 -2.492868,-0.72333 -1.00528,-1.36717 1.487588,-0.64384 5.18675,-1.407797 9.167638,-1.427726 z" />
  <path
     style="fill:#8f3905;fill-opacity:1;stroke-width:1.39843;stroke-linecap:round;stroke-linejoin:round;stroke-miterlimit:0"
     d="m 76.598311,64.77684 c -0.08045,2.413511 -0.160869,4.826057 0.321567,4.986589 0.482435,0.160533 1.527851,-1.930298 2.634271,-2.895438 1.10642,-0.965139 2.27246,-0.804306 3.035988,0.221542 0.763528,1.025848 1.125402,2.915638 1.3868,4.182244 0.261398,1.266607 0.422231,1.909939 1.005719,2.371924 0.583489,0.461986 1.588696,0.743444 2.472623,-0.68382 0.883927,-1.427263 1.647884,-4.563509 1.246333,-7.01611 C 88.300061,63.49117 86.731938,61.722006 85.847444,60.816888 84.962951,59.911771 84.76191,59.871562 84.55971,59.831122"
     id="hair-base" />
  <path
     style="fill:#8f3905;fill-opacity:1;stroke-width:1.39843;stroke-linecap:round;stroke-linejoin:round;stroke-miterlimit:0"
     d="m 63.329313,59.831122 c 4.504623,1.649014 9.00804,3.297586 11.702027,4.202176 2.693988,0.90459 3.57857,1.065423 5.08597,0.421884 1.5074,-0.643538 3.638439,-2.091036 4.040876,-3.558081 0.402438,-1.467046 -0.924435,-2.954752 -3.035318,-4.101081 -2.110883,-1.146329 -5.005879,-1.950495 -7.861051,-1.870333 -2.855173,0.08016 -5.669753,1.045161 -7.19809,1.749101 -1.528338,0.703939 -1.769587,1.14623 -2.010651,1.58818"
     id="hair-top" />
  <path
     style="fill:#8f3905;fill-opacity:1;stroke-width:1.39843;stroke-linecap:round;stroke-linejoin:round;stroke-miterlimit:0"
     d="m 62.062984,74.929991 c 0.744199,-0.744427 2.151517,-1.226936 3.619473,-1.166277 1.467957,0.06066 2.995871,0.663783 3.035815,1.145969 0.03995,0.482187 -1.407554,0.844062 -2.915463,1.286355 -1.507909,0.442293 -3.076033,0.965001 -3.820237,0.724294 -0.744203,-0.240708 -0.663787,-1.245915 0.08041,-1.990341 z"
     id="facial-top" />
  <path
     style="fill:#8f3905;fill-opacity:1;stroke-width:1.39843;stroke-linecap:round;stroke-linejoin:round;stroke-miterlimit:0"
     d="m 68.395658,76.477684 c -0.321877,0.683988 -0.643549,1.367543 -1.406841,1.548421 -0.763291,0.180879 -1.969541,-0.140787 -2.25137,0.583439 -0.281829,0.724225 0.361504,2.49339 1.266587,3.518264 0.905084,1.024873 2.071124,1.306331 2.874633,0.60286 0.803509,-0.703472 1.2458,-2.39222 1.2462,-3.658563 3.99e-4,-1.266342 -0.441892,-2.110716 -0.884818,-2.956302"
     id="facial-bottom" />
  <path
     style="fill:#e9e805;fill-opacity:1;stroke-width:1.39843;stroke-linecap:round;stroke-linejoin:round;stroke-miterlimit:0"
     d="m 68.411836,11.741376 c 3.016741,2.654732 6.032422,5.308531 9.269332,6.956751 3.23691,1.64822 6.694822,2.291552 8.58428,3.096236 1.889457,0.804685 2.211123,1.769684 2.15056,4.433424 -0.06056,2.66374 -0.502845,7.026252 0.884688,13.138315 1.387533,6.112062 4.604131,13.972624 6.403259,12.756152 1.799128,-1.216471 2.181099,-11.509585 1.216522,-18.083837 C 95.9559,27.464165 93.643923,24.609376 92.628169,21.352316 91.612415,18.095257 91.893867,14.436376 89.622646,11.68177 87.351425,8.9271645 82.526528,7.0776203 78.565348,7.2482123 74.604169,7.4188043 71.508131,9.6101559 68.411836,11.801689"
     id="hair-pony" />
  <path
     style="fill:#e9ba47;fill-opacity:1;stroke-width:1.39843;stroke-linecap:round;stroke-linejoin:round;stroke-miterlimit:0"
     d="m 21.468319,82.494995 c 3.016741,2.654732 13.352521,2.579002 16.589431,4.227222 3.23691,1.64822 1.95989,4.980844 2.877084,6.818321 1.020971,2.04538 1.440558,4.594791 3.267186,2.94459 3.933903,-3.553945 0.919239,-10.162714 3.986424,-7.08501 5.25255,5.270562 0.01356,5.908107 4.666287,5.560122 2.165739,-0.161979 4.901355,-1.281643 1.58873,-7.041653 -4.066314,-7.07053 -8.115263,1.116865 -9.131017,-2.140195 -1.015754,-3.257059 -1.106511,-3.193856 -3.377732,-5.948462 -2.271221,-2.754605 -7.096118,-2.867176 -11.057298,-2.696584 -3.961179,0.170592 -6.685008,1.989734 -9.409095,5.421962"
     id="hair-pony-2"
     sodipodi:nodetypes="csssssssssc" />
  <path
     style="fill:#e4711b;fill-opacity:1;stroke-width:1.39843;stroke-linecap:round;stroke-linejoin:round;stroke-miterlimit:0"
     d="m 51.600134,43.461274 c 3.016741,2.654732 13.352521,2.579002 16.589431,4.227222 3.23691,1.64822 1.95989,4.980844 2.877084,6.818321 1.020971,2.04538 1.140375,4.184109 3.267186,2.94459 4.182042,-2.43732 2.869799,-7.581288 2.869799,-7.581288 0,0 5.876363,5.150965 5.410704,-2.628464 -0.203558,-3.400682 -0.354446,-2.545084 -1.513007,-5.18061 -3.388029,-7.707181 -9.036198,-1.100489 -6.525558,1.209681 0.100871,0.09282 -0.238025,0.280089 -2.509246,-2.474517 -2.271221,-2.754605 -7.096118,-2.867176 -11.057298,-2.696584 -3.961179,0.170592 -6.685008,1.989734 -9.409095,5.421962"
     id="hair-bun"
     sodipodi:nodetypes="cssscsssssc" />
  <path
     style="fill:#e99205;fill-opacity:1;stroke-width:1.39843;stroke-linecap:round;stroke-linejoin:round;stroke-miterlimit:0"
     d="m 69.601825,69.175344 c -1.563682,1.336238 -3.127448,2.672547 -4.392244,2.829464 -1.264796,0.156916 -2.231468,-0.86662 -2.7153,-2.075012 -0.483831,-1.208393 -0.483831,-2.601539 0.270062,-3.398197 0.753893,-0.796659 2.260764,-0.99568 3.284335,-0.753393 1.023572,0.242287 1.563771,0.924645 1.364793,0.782432 -0.198978,-0.142214 -1.137218,-1.108887 -1.308401,-2.317522 -0.171183,-1.208636 0.42588,-2.658645 1.393166,-3.412369 0.967287,-0.753723 2.30357,-0.810586 2.971247,-0.838998 0.667677,-0.02841 2.4589,1.762811 2.544106,1.45039 0.08521,-0.312421 0.255795,-0.937915 0.924395,-1.407478 0.668601,-0.469563 1.834294,-0.78231 2.744366,-0.724972 0.910073,0.05734 1.563998,0.483811 1.663236,0.256566 0.09924,-0.227245 -0.355668,-1.108623 0.298378,-1.70637 0.654046,-0.597747 2.416803,-0.910494 4.009183,-0.554604 1.592381,0.355891 3.013958,1.379426 3.539349,2.10408 0.525391,0.724653 0.155781,1.151127 0.212593,0.95221 0.05681,-0.198918 0.540149,-1.023433 1.692361,-1.037531 1.152212,-0.0141 2.971832,0.781986 3.994857,2.075955 1.023025,1.29397 1.250478,3.085158 0.881124,4.108071 -0.369354,1.022914 -1.336027,1.278798 -1.03741,1.27882 0.298616,2.1e-5 1.862351,-0.255863 2.985254,0.498276 1.122902,0.754139 1.805258,2.516895 1.861806,3.824293 0.05655,1.307399 -0.512082,2.160345 -1.250819,2.643523 -0.738737,0.483178 -1.648529,0.596902 -1.378249,0.895699 0.27028,0.298797 1.72029,0.782133 2.330917,1.805924 0.610628,1.02379 0.383175,2.587525 -0.184862,3.312194 -0.568036,0.724669 -1.477828,0.610945 -1.719778,1.009535 -0.241949,0.39859 0.184524,1.3084 0.312112,2.218028 0.127587,0.909627 -0.043,1.819436 -0.938125,2.373419 -0.895122,0.553983 -2.515721,0.753004 -4.150416,0.440595 -1.634695,-0.312408 -3.283725,-1.136923 -4.17988,-2.21711 -0.896155,-1.080187 -1.038313,-2.41647 -0.682661,-3.227435 0.355652,-0.810965 1.208598,-1.095281 1.080643,-1.052629 -0.127956,0.04265 -1.236786,0.412262 -1.976025,0.228146 -0.739239,-0.184116 -1.108849,-0.923336 -1.464425,-2.060654 -0.355575,-1.137318 -0.696754,-2.672621 -0.298501,-3.611564 0.398253,-0.938942 1.535515,-1.28012 1.435807,-1.038428 -0.09971,0.241692 -1.435992,1.066207 -2.615694,0.697238 -1.179702,-0.368968 -2.203239,-1.932704 -2.8147,-2.998892 -0.611461,-1.066187 -0.810482,-1.634818 -0.881737,-1.49272 -0.07126,0.142099 -0.01439,0.995046 -1.009108,1.492046 -0.994717,0.497 -3.041789,0.639158 -4.207641,0.454971 -1.165853,-0.184187 -1.450168,-0.695955 -1.507149,-0.710159 -0.05698,-0.0142 0.113609,0.469132 -0.341313,0.965996 -0.454922,0.496864 -1.535321,1.008632 -1.777301,0.326653 -0.241981,-0.681978 0.355082,-2.55846 0.952353,-4.435599"
     id="hair-curly" />
  <path
     style="fill:#f7eff7;fill-opacity:1;stroke-width:1.39843;stroke-linecap:round;stroke-linejoin:round;stroke-miterlimit:0"
     d="m 35.130969,11.208757 c 1.770199,-1.9290362 6.212304,-6.3329312 6.212304,-6.3329312 l 7.599517,-2.291918 c 0,0 6.674709,0.743868 8.986731,1.779252 2.312023,1.035384 5.548854,5.7599522 5.548854,5.7599522 l 2.472859,16.465621 -10.735826,-2.050663 0.180941,-6.574186 -2.050664,6.031363 -5.367913,0.06031 5.066345,-14.1737042 -3.015682,4.1616412 c 0,0 -4.061117,-1.527945 -6.091676,-2.291918 l 1.99035,-3.3775642 -4.764777,4.7044642 -4.101328,-0.120627"
     id="hair-straight" />
  <path
     style="fill:#f7eff7;fill-opacity:1;stroke-width:1.39843;stroke-linecap:round;stroke-linejoin:round;stroke-miterlimit:0"
     d="m 72.87054,80.843163 c 1.468153,-0.583239 2.935784,-1.16627 4.343455,-1.115594 1.407671,0.05068 2.754648,0.734216 3.709222,1.910645 0.954575,1.176429 1.517491,2.845073 1.567464,4.754801 0.04997,1.909727 -0.412421,4.06087 -1.518144,6.161483 -1.105723,2.100613 -2.854783,4.151235 -4.532953,5.106205 -1.67817,0.954969 -3.286501,0.814239 -4.292203,-0.864015 -1.005702,-1.678255 -1.407785,-4.894918 -1.237053,-7.770122 0.170731,-2.875204 0.914585,-5.408326 1.658644,-7.942148"
     id="facial-big" />
  <path
     style="fill:#391d25;fill-opacity:1;stroke-width:1.39843;stroke-linecap:round;stroke-linejoin:round;stroke-miterlimit:0"
     d="m 60.421837,11.662531 c 1.943827,-1.6956793 3.887583,-3.3912959 6.596893,-4.3631772 2.709311,-0.9718812 6.183118,-1.22001 9.202302,-0.392414 3.019183,0.827596 5.583184,2.7299184 7.340536,4.9427202 1.757351,2.212803 2.708513,4.735451 3.266649,7.113428 0.558135,2.377977 0.723555,4.611138 0.640726,6.596146 -0.08283,1.985008 -0.413667,3.721911 -1.674564,4.734718 -1.260897,1.012807 -3.452703,1.302291 -5.582487,1.343759 -2.129785,0.04147 -5.6245,-0.308002 -5.91347,-0.98052 -0.28897,-0.672518 0.0605,-7.662031 -0.249247,-10.308765 -0.309753,-2.646733 -1.136866,-3.804692 -1.964807,-4.96381"
     id="hair-short"
     inkscape:path-effect="#path-effect386"
     inkscape:original-d="m 60.421837,11.662531 c 1.944755,-1.6946158 3.88851,-3.3902328 5.831265,-5.0868488 3.475015,-0.247144 6.948822,-0.495273 10.421836,-0.744416 2.565154,1.903436 5.129155,3.805758 7.692309,5.7071948 0.952218,2.523796 1.903379,5.046444 2.853597,7.56824 0.166429,2.234296 0.331849,4.467457 0.496278,6.699753 -0.329859,1.738007 -0.660697,3.47491 -0.992555,5.210917 -2.190938,0.290501 -4.382744,0.579985 -6.575683,0.868486 -2.066866,-0.205786 -5.561581,-0.555257 -6.203474,-0.620346 0.06509,-1.280786 0.414565,-8.270299 0.620347,-12.406948 -0.826146,-1.157005 -1.653259,-2.314964 -2.481389,-3.473947"
     sodipodi:nodetypes="ccccccccccc" />
  <path
     style="fill:#171d25;fill-opacity:1;stroke-width:1.39843;stroke-linecap:round;stroke-linejoin:round;stroke-miterlimit:0"
     d="m 45.647539,74.772411 c 1.943827,-1.695679 3.887582,-3.391296 6.596892,-4.363177 2.709311,-0.971882 6.183118,-1.22001 9.202302,-0.392414 3.019183,0.827596 5.583184,2.729918 7.444012,4.797965 1.860828,2.068048 3.018763,4.30121 3.80434,6.617191 0.785577,2.315982 1.199125,4.714562 1.488569,6.989181 0.289445,2.274619 0.454865,4.42507 -2.460526,6.3062 -2.915391,1.881131 -8.911844,3.49397 -12.944082,3.019 -4.032238,-0.47497 -7.526953,-4.808416 -7.270709,-5.373044 0.256243,-0.564628 6.546731,-2.38188 7.663309,-4.655834 1.116578,-2.273954 -0.372226,-5.74783 -1.861577,-9.222983"
     id="hair-sbob2"
     inkscape:path-effect="#path-effect386-0"
     inkscape:original-d="m 45.647539,74.772411 c 1.944754,-1.694616 3.888509,-3.390233 5.831264,-5.086849 3.475015,-0.247144 6.948822,-0.495273 10.421836,-0.744416 2.565154,1.903436 5.129155,3.805758 7.692309,5.707195 1.159004,2.234295 2.31694,4.467457 3.473944,6.699753 0.414574,2.399725 0.828122,4.798305 1.240695,7.196031 0.16643,2.15158 0.331849,4.302031 0.496279,6.451611 -5.995811,1.613936 -11.992264,3.226774 -17.990075,4.83871 -2.066866,-2.563154 -5.561581,-6.896599 -6.203474,-7.692307 1.154607,-0.332264 7.445095,-2.149516 11.166253,-3.225806 -1.487863,-3.473015 -2.976667,-6.946891 -4.466501,-10.421837"
     sodipodi:nodetypes="ccccccccccc" />
  <path
     style="fill:#981d15;fill-opacity:1;stroke-width:1.39843;stroke-linecap:round;stroke-linejoin:round;stroke-miterlimit:0"
     d="m 48.625204,63.358021 c 1.943827,-1.695679 3.887583,-3.391296 6.596893,-4.363177 2.709311,-0.971882 6.183118,-1.22001 9.202302,-0.392414 3.019183,0.827596 5.583184,2.729918 7.175138,4.405076 1.591953,1.675158 2.212276,3.122577 2.460122,4.569934 0.247846,1.447357 0.123782,2.894777 -0.165765,4.590336 -0.289547,1.695559 -0.74445,3.639236 -1.509546,5.37598 -0.765095,1.736743 -1.840321,3.266872 -2.770518,3.163982 -0.930198,-0.102889 -2.258189,-3.038449 -2.361026,-3.737148 -0.102837,-0.6987 0.106846,-5.381619 -1.029873,-7.056925 -1.136718,-1.675306 -3.535346,-2.254286 -5.935196,-2.83356"
     id="hair-crop"
     inkscape:path-effect="#path-effect386-2"
     inkscape:original-d="m 48.625204,63.358021 c 1.944755,-1.694616 3.88851,-3.390233 5.831265,-5.086849 3.475015,-0.247144 6.948822,-0.495273 10.421836,-0.744416 2.565154,1.903436 5.129155,3.805758 7.692309,5.707195 0.621359,1.448506 1.241682,2.895925 1.861041,4.342432 -0.123072,1.448506 -0.247136,2.895926 -0.372208,4.342432 -0.45393,1.944794 -0.908833,3.888471 -1.364764,5.831265 -1.07429,1.53122 -2.149516,3.061349 -3.225807,4.59057 -0.784789,-1.736007 -2.11278,-4.671567 -2.35732,-5.210917 0.03945,-0.857796 0.249136,-5.540715 0.372208,-8.312655 -2.397724,-0.578002 -4.796352,-1.156982 -7.196029,-1.736973"
     sodipodi:nodetypes="ccccccccccc" />
  <path
     style="fill:#8f3d4d;fill-opacity:1;stroke-width:1.39843;stroke-linecap:round;stroke-linejoin:round;stroke-miterlimit:0"
     d="m 40.384652,19.508456 c 1.943827,-1.695679 3.887583,-3.391296 6.803712,-4.259756 2.91613,-0.868461 6.803563,-0.909816 9.926003,0.269377 3.122439,1.179194 5.479713,3.577822 6.968155,6.576269 1.488443,2.998446 2.108778,6.596389 2.667038,11.683269 0.558259,5.08688 1.054517,11.6623 1.054373,15.549604 -1.44e-4,3.887304 -0.496411,5.086617 -1.963936,5.54135 -1.467525,0.454734 -3.90746,0.16525 -6.2442,0.02043 -2.336741,-0.144816 -6.111033,-0.144815 -6.367919,-1.592765 -0.256886,-1.447951 0.721645,-17.244251 0.598002,-22.496436 -0.123643,-5.252186 -0.950756,-6.410145 -1.778697,-7.569262"
     id="hair-long"
     inkscape:path-effect="#path-effect386-3"
     inkscape:original-d="m 40.384652,19.508456 c 1.944755,-1.694616 3.88851,-3.390233 5.831265,-5.086849 3.888588,-0.04036 7.776021,-0.08171 11.662531,-0.124069 2.358367,2.399724 4.71564,4.798353 7.071961,7.196029 0.621359,3.599087 1.241694,7.19703 1.861042,10.794045 0.497288,6.576814 0.993545,13.152234 1.488833,19.727048 -0.495288,1.200362 -0.991555,2.399675 -1.488833,3.598014 -2.439082,-0.288501 -4.879017,-0.577985 -7.320099,-0.868487 -2.232296,0.001 -6.006588,0.001 -6.699752,1e-6 0.18045,-2.895835 1.158981,-18.692135 1.736972,-28.039702 -0.826146,-1.157005 -1.653259,-2.314964 -2.481389,-3.473946"
     sodipodi:nodetypes="ccccccccccc" />
  <path
     style="fill:#226a71;fill-opacity:1;stroke-width:1.39843;stroke-linecap:round;stroke-linejoin:round;stroke-miterlimit:0"
     d="m 15.012407,30.521092 c 2.316426,-1.034119 4.632389,-2.068031 7.039753,-2.464523 2.407364,-0.396492 4.905353,-0.155889 7.011012,0.732458 2.105658,0.888347 3.818766,2.423494 4.906039,3.957603 1.087272,1.534109 1.54928,3.066777 1.759929,3.83253 0.210649,0.765753 0.169299,0.765753 1.480405,0.769303 1.311106,0.0035 3.973566,0.01064 6.637082,0.01774 -0.235596,-1.798829 -0.471042,-3.59651 -1.059283,-5.766468 -0.588242,-2.169959 -1.529368,-4.710951 -3.586837,-6.957426 -2.057468,-2.246475 -5.231757,-4.197679 -8.354525,-5.20648 -3.122768,-1.008801 -6.19349,-1.074381 -8.906534,-0.806698 -2.713045,0.267684 -5.067761,0.868798 -7.0103,1.646027 -1.942539,0.777229 -3.472236,1.730467 -4.60833,2.981912 -1.1360946,1.251445 -1.8777848,2.799958 -2.619693,4.348927 -0.00294,0.0205 -0.006,0.04184 -0.00882,0.0615"
     id="hair-mohawk"
     inkscape:path-effect="#path-effect1306"
     inkscape:original-d="m 15.012407,30.521092 c 2.316964,-1.032913 4.632927,-2.066825 6.947891,-3.101737 2.49914,0.241618 4.997129,0.482221 7.494269,0.721838 1.714211,1.536239 3.42732,3.071385 5.13953,4.605623 0.463027,1.53373 0.925035,3.066398 1.386052,4.598097 -0.04036,0.001 -0.08171,0.001 -0.12407,0 2.664569,0.0081 7.990548,0.02129 7.990548,0.02129 0,0 -0.470187,-3.596622 -0.706788,-5.396487 -0.940183,-2.540145 -1.88131,-5.081137 -2.823493,-7.623282 -3.173479,-1.95032 -6.347768,-3.901524 -9.523246,-5.853844 -3.069907,-0.06458 -6.140629,-0.130164 -9.212537,-0.196748 -2.353859,0.602151 -4.708575,1.203266 -7.064434,1.803417 -1.528791,0.954297 -3.058489,1.907535 -4.5892794,2.859832 -0.7409231,1.55 -2.2257246,4.646906 -2.2257246,4.646906 0,0 -0.00488,0.042 -0.00882,0.0615"
     sodipodi:nodetypes="ccccccccccccccc" />
  <path
     style="fill:none;fill-opacity:1;stroke:#000000;stroke-width:1.39843;stroke-linecap:round;stroke-linejoin:round;stroke-miterlimit:0;stroke-dasharray:none;stroke-opacity:1"
     d="m 36.398695,35.972734 c 1.668255,-0.468869 1.668239,-0.468865 2.591623,-0.435498 0.923384,0.03337 1.935773,0.333893 2.59038,0.814829 0.654608,0.480936 0.952055,1.141411 1.248968,1.800702"
     id="eyebrow-02"
     inkscape:path-effect="#path-effect1422"
     inkscape:original-d="m 36.398695,35.972734 c 1.668589,-0.467682 1.668573,-0.467678 2.501384,-0.703023 1.013431,0.301538 2.02582,0.602064 3.037232,0.901597 0.298452,0.661487 0.595899,1.321962 0.892355,1.981459"
     sodipodi:nodetypes="cccc" />
  <path
     style="fill:none;fill-opacity:1;stroke:#000000;stroke-width:1.39843;stroke-linecap:round;stroke-linejoin:round;stroke-miterlimit:0;stroke-dasharray:none;stroke-opacity:1"
     d="m 33.788236,31.018383 c 1.668255,-0.468869 1.668239,-0.468865 2.524264,-0.632169 0.856025,-0.163303 1.734008,-0.255656 2.435604,-0.245405 0.701596,0.01025 1.226499,0.12276 1.750259,0.235026"
     id="eyebrow-03"
     inkscape:path-effect="#path-effect1422-0"
     inkscape:original-d="m 33.788236,31.018383 c 1.668589,-0.467682 1.668573,-0.467677 2.501384,-0.703023 0.87902,-0.09136 1.757003,-0.183709 2.634006,-0.277063 0.525913,0.113513 1.050816,0.226023 1.574737,0.337538"
     sodipodi:nodetypes="cccc" />
  <path
     style="fill:none;fill-opacity:1;stroke:#730000;stroke-width:1.3984252;stroke-linecap:round;stroke-linejoin:round;stroke-miterlimit:0;stroke-dasharray:none;stroke-opacity:1"
     d="m 18.170991,33.689807 c 0.820722,0.917813 0.820714,0.917804 1.583482,1.027839 0.762768,0.110035 1.878545,-0.127062 2.766277,0.02312 0.887731,0.150181 1.54704,0.686588 2.205281,1.222126"
     id="eyebrow-05"
     inkscape:path-effect="#path-effect1422-0-4"
     inkscape:original-d="m 18.170991,33.689807 c 0.820781,0.917761 0.820772,0.917751 1.229671,1.375141 1.116826,-0.236107 2.232603,-0.473204 3.347406,-0.711306 0.660322,0.537417 1.319631,1.073824 1.977963,1.60925"
     sodipodi:nodetypes="cccc" />
</svg>
