<?xml version="1.0" standalone="no"?>
<!DOCTYPE svg PUBLIC "-//W3C//DTD SVG 20010904//EN"
 "http://www.w3.org/TR/2001/REC-SVG-20010904/DTD/svg10.dtd">
<svg version="1.0" xmlns="http://www.w3.org/2000/svg"
 width="1500.000000pt" height="1500.000000pt" viewBox="0 0 1500.000000 1500.000000"
 preserveAspectRatio="xMidYMid meet">
<metadata>
Created by potrace 1.14, written by Peter Selinger 2001-2017
</metadata>
<g transform="translate(0.000000,1500.000000) scale(0.100000,-0.100000)"
fill="#000000" stroke="none">
<path d="M8383 12359 c-146 -14 -290 -130 -334 -268 -6 -20 -30 -56 -53 -81
-90 -96 -112 -156 -131 -363 -46 -496 -91 -881 -156 -1327 -31 -221 -39 -300
-34 -353 7 -80 29 -159 56 -206 11 -18 18 -36 15 -38 -5 -5 -424 8 -742 23
l-132 6 52 79 c221 336 256 399 299 535 58 182 74 405 42 586 -89 512 -554
930 -1192 1073 -60 13 -174 44 -254 69 -186 57 -255 70 -330 63 -132 -12 -272
-121 -340 -264 -18 -37 -49 -88 -70 -111 -65 -75 -100 -147 -124 -257 l-7 -30
-21 50 c-80 187 -205 284 -372 293 -175 9 -334 -92 -393 -250 -12 -30 -39 -73
-65 -99 -93 -97 -131 -231 -108 -387 9 -64 32 -138 91 -287 130 -334 207 -593
229 -772 7 -59 6 -63 -13 -63 -33 0 -137 116 -183 205 -23 44 -111 259 -197
478 -86 219 -170 426 -188 460 -41 77 -128 166 -194 200 -147 75 -327 45 -446
-74 -45 -45 -98 -133 -98 -163 0 -7 -21 -36 -46 -62 -79 -84 -124 -183 -124
-277 0 -27 -4 -37 -12 -33 -298 123 -640 103 -893 -51 -131 -80 -331 -246
-387 -322 -15 -20 -36 -61 -48 -91 -11 -29 -43 -78 -70 -107 -90 -99 -123
-216 -97 -344 8 -42 25 -95 36 -119 11 -24 19 -45 18 -47 -2 -1 -23 7 -48 19
-94 46 -250 33 -376 -31 -160 -81 -369 -266 -453 -400 -25 -40 -78 -123 -119
-184 -110 -168 -154 -266 -191 -432 -27 -119 -37 -329 -20 -432 15 -98 56
-214 101 -289 71 -119 206 -229 336 -275 79 -28 228 -36 309 -17 l62 15 -44
-64 c-54 -79 -76 -151 -76 -251 0 -149 77 -276 217 -357 25 -15 45 -30 45 -34
0 -4 -16 -54 -35 -112 -49 -142 -118 -390 -149 -529 -61 -278 -80 -448 -80
-710 0 -314 27 -462 135 -762 300 -827 586 -1215 1109 -1503 281 -155 736
-307 1127 -377 112 -20 161 -23 393 -23 305 0 306 0 835 105 650 128 1032 170
1545 170 365 0 562 -25 895 -111 554 -144 853 -195 1355 -234 625 -47 1463
-50 1985 -5 1456 126 2328 588 2894 1535 224 374 426 874 615 1520 79 273 104
381 116 516 41 442 -138 862 -544 1277 l-71 73 23 39 c12 21 22 46 22 54 0 9
23 41 51 72 78 86 112 168 117 279 l4 90 87 0 c114 1 177 26 263 105 59 53
128 156 128 190 0 7 22 37 50 67 27 30 63 82 80 117 l30 63 67 5 c138 11 274
110 335 245 17 37 47 86 68 109 105 114 142 255 105 399 -63 240 -408 600
-763 798 -36 19 -74 50 -91 74 -82 113 -262 184 -392 153 -135 -32 -222 -103
-341 -278 -71 -104 -288 -347 -373 -418 -108 -90 -129 -111 -165 -164 -34 -50
-80 -101 -80 -88 0 17 43 97 60 113 40 36 101 139 117 197 16 56 19 60 75 88
33 17 73 40 89 52 45 34 108 120 130 179 12 30 39 72 64 98 83 86 124 210 105
324 -25 153 -135 295 -364 466 -150 113 -267 173 -519 267 -66 24 -138 57
-160 72 -84 56 -123 67 -237 67 -99 0 -109 -2 -172 -33 -86 -42 -153 -111
-207 -212 -23 -44 -58 -99 -78 -122 -19 -23 -87 -146 -150 -273 -118 -236
-354 -692 -380 -734 l-15 -23 -31 30 c-50 46 -106 77 -187 103 -41 13 -76 24
-78 25 -1 0 21 97 49 213 49 202 52 212 73 207 186 -52 360 1 467 143 20 28
45 73 53 99 9 27 30 62 47 78 83 78 129 188 131 313 1 138 -57 258 -163 336
-63 46 -317 154 -539 229 -152 51 -413 119 -539 141 -204 36 -373 -48 -456
-228 -18 -40 -52 -92 -76 -117 -195 -208 -136 -550 116 -675 41 -20 75 -39 75
-41 0 -2 -20 -71 -45 -152 -25 -81 -58 -196 -73 -257 l-29 -110 -37 -3 c-33
-3 -43 2 -86 46 -59 60 -141 101 -230 115 -57 9 -83 6 -225 -22 -187 -36 -323
-56 -331 -49 -3 3 13 151 35 329 51 407 90 795 98 964 5 116 3 137 -16 194
-47 136 -151 237 -276 269 -70 18 -89 19 -162 11z m94 -294 c63 -26 78 -57 76
-150 -3 -177 -94 -987 -152 -1355 -16 -102 -32 -205 -36 -229 l-6 -44 203 6
c215 6 253 10 499 58 145 28 158 30 192 16 100 -42 102 -189 3 -236 -61 -30
-175 -57 -327 -78 -169 -22 -632 -26 -691 -5 -82 29 -127 96 -128 188 0 29 14
146 30 260 63 435 114 868 165 1420 8 84 32 129 78 149 41 18 49 18 94 0z
m-2722 -255 c94 -28 212 -60 264 -71 427 -93 793 -364 920 -680 111 -276 60
-624 -126 -866 -119 -156 -293 -251 -548 -299 -121 -22 -321 -15 -415 15 -36
11 -78 21 -95 21 -40 0 -90 32 -109 69 -14 27 -37 189 -91 646 -9 72 -48 315
-86 540 -39 226 -73 444 -76 485 -5 72 -4 77 27 123 41 60 73 79 125 73 22 -3
117 -28 210 -56z m4490 -55 c220 -56 333 -92 535 -172 192 -76 229 -94 253
-121 44 -48 25 -161 -32 -195 -53 -31 -102 -22 -293 54 -98 40 -180 70 -182
68 -7 -8 -115 -346 -155 -484 -22 -77 -59 -216 -81 -310 -55 -230 -87 -352
-110 -419 -14 -42 -16 -58 -7 -61 7 -2 93 -25 192 -51 99 -25 188 -50 198 -56
29 -15 57 -70 57 -113 0 -53 -31 -102 -76 -121 -42 -18 -27 -20 -339 60 -130
33 -292 66 -395 81 -203 29 -238 38 -273 65 -71 56 -51 185 34 220 26 11 45
11 103 1 39 -7 108 -18 153 -25 79 -12 82 -12 91 8 22 49 64 205 107 398 49
223 122 479 208 731 l53 157 -35 10 c-20 5 -94 24 -166 41 -111 28 -135 37
-162 65 -28 27 -33 39 -33 81 0 91 61 148 145 136 22 -3 117 -25 210 -48z
m-5656 -219 c36 -19 73 -92 156 -306 188 -487 257 -766 259 -1045 1 -214 -43
-368 -142 -492 -159 -199 -544 -303 -787 -212 -159 59 -307 209 -431 435 -77
142 -281 641 -352 865 -57 178 -50 243 32 283 39 19 40 19 75 0 19 -10 48 -37
63 -59 16 -22 100 -223 187 -445 87 -223 175 -439 196 -480 145 -290 335 -424
550 -390 178 28 286 111 332 255 27 86 29 297 4 440 -39 218 -108 442 -241
784 -62 159 -70 188 -70 246 0 63 2 69 34 101 38 38 86 45 135 20z m7267 -256
c8 0 31 -15 51 -34 23 -20 66 -42 108 -56 120 -39 317 -120 393 -162 208 -114
412 -308 412 -391 0 -42 -34 -83 -83 -102 -56 -21 -81 -12 -166 66 -77 71
-196 152 -298 203 -115 57 -398 165 -408 155 -1 -2 -55 -108 -119 -236 l-116
-232 43 -11 c198 -50 323 -104 528 -231 138 -86 169 -117 169 -172 0 -78 -58
-140 -131 -140 -32 0 -64 15 -167 78 -200 124 -260 152 -396 190 -70 19 -139
36 -152 37 -23 3 -39 -24 -228 -387 -217 -416 -230 -435 -301 -435 -38 0 -95
36 -112 70 -23 45 -15 87 38 193 29 56 175 338 327 627 151 289 319 615 374
724 54 110 106 208 115 218 18 20 70 39 91 32 8 -2 20 -4 28 -4z m-9271 -797
c144 -35 263 -137 334 -286 49 -103 64 -167 63 -272 -2 -246 -156 -495 -392
-631 -44 -25 -80 -48 -80 -50 0 -6 169 -267 273 -423 49 -73 93 -147 97 -162
27 -94 -78 -175 -166 -128 -39 20 -314 440 -534 814 -101 171 -230 382 -288
470 -121 185 -152 245 -152 299 0 35 7 45 63 98 136 128 277 223 383 258 117
39 273 44 399 13z m10975 -201 c14 -10 33 -36 44 -57 16 -34 34 -48 125 -99
263 -143 505 -361 626 -562 58 -96 44 -178 -35 -219 -35 -18 -87 -19 -117 -2
-12 7 -50 52 -85 102 -92 131 -242 277 -372 364 -112 74 -241 144 -256 139 -5
-2 -24 -24 -43 -51 -18 -26 -103 -122 -188 -214 -85 -91 -154 -169 -154 -174
0 -4 135 -105 300 -224 165 -120 317 -231 338 -247 47 -38 67 -75 67 -127 0
-33 -7 -49 -36 -81 -44 -48 -87 -59 -134 -35 -18 10 -175 121 -349 249 -174
127 -330 242 -348 254 l-32 23 -69 -73 c-159 -167 -298 -345 -316 -405 -15
-48 36 -104 313 -338 96 -80 201 -165 233 -187 63 -42 98 -88 98 -127 0 -60
-78 -141 -136 -141 -35 0 -102 41 -216 133 -289 231 -461 404 -520 524 -28 56
-30 70 -26 128 10 120 103 274 294 486 114 127 199 225 232 268 13 17 35 36
50 43 49 24 366 373 452 497 44 65 88 125 98 134 54 49 111 56 162 19z m-1970
-637 c14 -7 87 -52 164 -99 150 -93 218 -122 299 -132 61 -7 155 10 209 37 21
11 39 19 42 19 3 0 -26 -39 -65 -87 -39 -49 -95 -128 -126 -178 -30 -49 -77
-121 -103 -160 -26 -38 -62 -95 -79 -127 l-32 -56 -102 77 c-122 92 -247 170
-396 248 -61 32 -111 62 -111 66 0 5 13 25 29 45 17 20 69 113 116 205 94 182
88 176 155 142z m-8305 -183 c-5 -6 -176 -70 -173 -64 2 4 25 51 52 104 l49
98 37 -68 c21 -37 36 -68 35 -70z m2061 40 c67 -50 110 -70 192 -88 249 -55
257 -56 402 -56 110 0 169 5 245 21 128 27 265 72 363 119 l77 37 275 -7 c363
-9 952 -35 1220 -54 118 -8 445 -19 725 -24 390 -6 526 -12 580 -23 39 -9 136
-25 216 -36 82 -12 260 -50 405 -87 226 -57 268 -65 326 -61 l67 4 7 -31 c10
-50 51 -129 90 -174 149 -174 410 -189 586 -33 25 22 51 41 57 41 30 0 305
-155 426 -240 33 -23 97 -72 142 -109 82 -65 83 -67 83 -111 1 -174 107 -368
306 -560 159 -153 393 -348 504 -419 137 -89 301 -105 419 -42 17 9 32 -3 120
-95 363 -380 507 -753 446 -1154 -28 -188 -241 -874 -373 -1205 -313 -783
-686 -1262 -1233 -1586 -485 -287 -1061 -438 -1949 -511 -246 -21 -1348 -17
-1660 5 -594 42 -858 84 -1403 222 -447 113 -612 135 -1012 135 -539 0 -913
-41 -1595 -175 -456 -89 -574 -105 -785 -105 -257 0 -460 33 -785 127 -411
118 -743 283 -966 480 -272 241 -453 545 -666 1123 -106 286 -127 389 -135
646 -11 368 52 743 204 1201 l57 172 55 6 c160 17 301 70 450 169 149 99 312
270 401 421 13 22 56 90 96 150 91 139 134 220 170 324 l29 82 55 -6 c114 -12
236 32 321 117 48 48 99 132 99 163 0 9 21 37 46 63 84 87 124 180 124 293 0
94 -32 175 -125 315 -82 126 -83 128 -63 143 35 24 246 117 345 151 l92 32 68
-69 c124 -125 282 -219 438 -259 98 -25 312 -25 418 -1 312 73 519 206 649
418 24 38 57 91 73 117 l30 47 95 6 c52 3 97 6 100 7 3 1 28 -15 56 -36z
m-4107 -147 c17 -20 31 -45 31 -56 0 -42 -35 -92 -103 -147 -39 -31 -101 -83
-138 -114 -214 -182 -282 -496 -135 -625 81 -72 161 -35 372 168 169 162 263
223 396 254 176 41 327 -4 463 -140 119 -119 161 -235 152 -420 -11 -234 -106
-440 -291 -633 -122 -127 -247 -208 -381 -247 -111 -33 -236 -6 -298 63 -27
29 -33 92 -13 130 30 58 56 67 196 67 120 0 127 1 179 30 104 57 230 194 291
315 53 106 74 188 75 285 0 105 -19 159 -79 218 -58 59 -91 72 -176 71 -135
-1 -251 -66 -435 -244 -178 -173 -270 -223 -410 -224 -83 -1 -124 13 -198 68
-113 83 -170 269 -147 477 20 176 67 311 155 434 102 143 328 305 426 305 30
0 43 -7 68 -35z m376 -106 c72 -116 73 -119 43 -119 -13 0 -54 -8 -90 -19 -66
-18 -67 -18 -57 1 22 40 39 115 39 171 0 31 2 57 4 57 3 0 30 -41 61 -91z
m-15 -1230 c0 -34 -53 -79 -94 -79 -19 0 -37 4 -40 9 -6 9 107 91 125 91 5 0
9 -9 9 -21z"/>
<path d="M5670 11538 c0 -7 25 -157 55 -333 30 -176 74 -476 99 -667 24 -190
47 -351 50 -356 10 -17 98 -43 166 -49 42 -3 97 1 155 11 276 52 392 126 480
310 52 109 65 167 65 288 0 314 -208 543 -614 677 -120 40 -432 131 -448 131
-4 0 -8 -6 -8 -12z m526 -791 c65 -59 104 -134 111 -216 l6 -59 -54 -17 c-30
-8 -72 -18 -94 -21 l-41 -6 -22 183 c-29 240 -30 225 9 202 18 -10 56 -40 85
-66z"/>
<path d="M2280 10242 c-30 -10 -71 -27 -90 -37 -45 -23 -180 -124 -180 -135 0
-4 31 -55 68 -112 38 -56 121 -192 186 -300 l119 -198 70 37 c145 76 261 229
289 381 26 139 -43 296 -156 355 -58 30 -227 35 -306 9z"/>
</g>
</svg>
